<?xml version="1.0" encoding="UTF-8" standalone="no"?>
<!DOCTYPE svg PUBLIC "-//W3C//DTD SVG 1.1//EN" "http://www.w3.org/Graphics/SVG/1.1/DTD/svg11.dtd">
<svg width="100%" height="100%" viewBox="0 0 500 110" version="1.1" xmlns="http://www.w3.org/2000/svg" xmlns:xlink="http://www.w3.org/1999/xlink" xml:space="preserve" xmlns:serif="http://www.serif.com/" style="fill-rule:evenodd;clip-rule:evenodd;stroke-linecap:round;stroke-linejoin:round;stroke-miterlimit:10;">
    <g transform="matrix(1.50184,0,0,1.13411,-69.9576,-514.192)">
        <rect x="46.581" y="453.389" width="332.926" height="96.992" style="fill:none;stroke:rgb(8,6,5);stroke-width:0.75px;"/>
    </g>
    <g transform="matrix(1.50184,0,0,1.50184,-69.9576,-681.636)">
        <path d="M94.47,487.517L97.538,490.909L93.931,494.192L75.575,494.192L72.507,490.855L76.167,487.517L94.47,487.517Z" style="fill:rgb(8,6,5);fill-rule:nonzero;"/>
    </g>
    <path d="M131.422,50.534L136.03,55.628L130.614,60.559L103.046,60.559L98.437,55.547L103.935,50.534L131.422,50.534Z" style="fill:rgb(8,6,5);fill-rule:nonzero;"/>
    <path d="M97.386,54.335L96.982,54.739L92.374,54.739L95.285,21.269L98.033,18.762L104.824,26.281L102.803,49.403L97.386,54.335Z" style="fill:rgb(8,6,5);fill-rule:nonzero;"/>
    <path d="M99.245,17.63L101.995,15.125L139.587,15.125L141.932,17.63L133.766,25.15L106.118,25.15L99.245,17.63Z" style="fill:rgb(8,6,5);fill-rule:nonzero;"/>
    <path d="M137.081,56.759L137.485,56.436L142.175,56.436L139.265,89.825L136.515,92.331L129.725,84.813L131.745,61.691L137.081,56.759Z" style="fill:rgb(8,6,5);fill-rule:nonzero;"/>
    <path d="M142.983,18.762L145.246,21.269L142.336,54.739L137.647,54.739L137.324,54.414L132.796,49.484L134.818,26.281L142.983,18.762Z" style="fill:rgb(8,6,5);fill-rule:nonzero;"/>
    <path d="M135.303,93.464L132.554,95.969L94.96,95.969L92.616,93.464L100.782,85.944L128.43,85.944L135.303,93.464Z" style="fill:rgb(8,6,5);fill-rule:nonzero;"/>
    <path d="M197.392,50.534L201.999,55.628L196.584,60.559L169.014,60.559L164.407,55.547L169.905,50.534L197.392,50.534Z" style="fill:rgb(8,6,5);fill-rule:nonzero;"/>
    <path d="M163.356,54.335L162.952,54.739L158.344,54.739L161.254,21.269L164.003,18.762L170.794,26.281L168.773,49.403L163.356,54.335Z" style="fill:rgb(8,6,5);fill-rule:nonzero;"/>
    <path d="M165.215,17.63L167.965,15.125L205.557,15.125L207.901,17.63L199.736,25.15L172.087,25.15L165.215,17.63Z" style="fill:rgb(8,6,5);fill-rule:nonzero;"/>
    <path d="M203.051,56.759L203.455,56.436L208.145,56.436L205.234,89.825L202.484,92.331L195.695,84.813L197.715,61.691L203.051,56.759Z" style="fill:rgb(8,6,5);fill-rule:nonzero;"/>
    <path d="M208.953,18.762L211.216,21.269L208.305,54.739L203.617,54.739L203.294,54.414L198.766,49.484L200.787,26.281L208.953,18.762Z" style="fill:rgb(8,6,5);fill-rule:nonzero;"/>
    <path d="M201.272,93.464L198.524,95.969L160.93,95.969L158.586,93.464L166.751,85.944L194.4,85.944L201.272,93.464Z" style="fill:rgb(8,6,5);fill-rule:nonzero;"/>
    <path d="M279.53,50.534L284.139,55.628L278.722,60.559L251.154,60.559L246.545,55.547L252.043,50.534L279.53,50.534Z" style="fill:rgb(8,6,5);fill-rule:nonzero;"/>
    <path d="M245.494,54.335L245.09,54.739L240.482,54.739L243.393,21.269L246.141,18.762L252.932,26.281L250.911,49.403L245.494,54.335Z" style="fill:rgb(8,6,5);fill-rule:nonzero;"/>
    <path d="M247.353,17.63L250.103,15.125L287.695,15.125L290.04,17.63L281.874,25.15L254.226,25.15L247.353,17.63Z" style="fill:rgb(8,6,5);fill-rule:nonzero;"/>
    <path d="M285.189,56.759L285.593,56.436L290.283,56.436L287.373,89.825L284.623,92.331L277.833,84.813L279.853,61.691L285.189,56.759Z" style="fill:rgb(8,6,5);fill-rule:nonzero;"/>
    <path d="M291.091,18.762L293.354,21.269L290.444,54.739L285.755,54.739L285.432,54.414L280.904,49.484L282.926,26.281L291.091,18.762Z" style="fill:rgb(8,6,5);fill-rule:nonzero;"/>
    <path d="M283.411,93.464L280.662,95.969L243.068,95.969L240.724,93.464L248.89,85.944L276.538,85.944L283.411,93.464Z" style="fill:rgb(8,6,5);fill-rule:nonzero;"/>
    <path d="M345.5,50.534L350.107,55.628L344.692,60.559L317.122,60.559L312.515,55.547L318.013,50.534L345.5,50.534Z" style="fill:rgb(8,6,5);fill-rule:nonzero;"/>
    <path d="M311.464,54.335L311.06,54.739L306.452,54.739L309.362,21.269L312.111,18.762L318.902,26.281L316.881,49.403L311.464,54.335Z" style="fill:rgb(8,6,5);fill-rule:nonzero;"/>
    <path d="M313.323,17.63L316.073,15.125L353.665,15.125L356.009,17.63L347.844,25.15L320.195,25.15L313.323,17.63Z" style="fill:rgb(8,6,5);fill-rule:nonzero;"/>
    <path d="M351.159,56.759L351.563,56.436L356.253,56.436L353.342,89.825L350.592,92.331L343.803,84.813L345.822,61.691L351.159,56.759Z" style="fill:rgb(8,6,5);fill-rule:nonzero;"/>
    <path d="M357.061,18.762L359.324,21.269L356.413,54.739L351.725,54.739L351.402,54.414L346.874,49.484L348.895,26.281L357.061,18.762Z" style="fill:rgb(8,6,5);fill-rule:nonzero;"/>
    <path d="M349.38,93.464L346.632,95.969L309.038,95.969L306.694,93.464L314.859,85.944L342.508,85.944L349.38,93.464Z" style="fill:rgb(8,6,5);fill-rule:nonzero;"/>
    <path d="M411.469,50.534L416.077,55.628L410.661,60.559L383.092,60.559L378.484,55.547L383.983,50.534L411.469,50.534Z" style="fill:rgb(8,6,5);fill-rule:nonzero;"/>
    <path d="M377.433,54.335L377.029,54.739L372.421,54.739L375.332,21.269L378.08,18.762L384.872,26.281L382.85,49.403L377.433,54.335Z" style="fill:rgb(8,6,5);fill-rule:nonzero;"/>
    <path d="M379.292,17.63L382.042,15.125L419.635,15.125L421.979,17.63L413.814,25.15L386.165,25.15L379.292,17.63Z" style="fill:rgb(8,6,5);fill-rule:nonzero;"/>
    <path d="M417.128,56.759L417.532,56.436L422.222,56.436L419.312,89.825L416.562,92.331L409.772,84.813L411.792,61.691L417.128,56.759Z" style="fill:rgb(8,6,5);fill-rule:nonzero;"/>
    <path d="M423.03,18.762L425.294,21.269L422.383,54.739L417.694,54.739L417.371,54.414L412.843,49.484L414.865,26.281L423.03,18.762Z" style="fill:rgb(8,6,5);fill-rule:nonzero;"/>
    <path d="M415.35,93.464L412.602,95.969L375.008,95.969L372.663,93.464L380.829,85.944L408.478,85.944L415.35,93.464Z" style="fill:rgb(8,6,5);fill-rule:nonzero;"/>
</svg>
