<?xml version="1.0" encoding="UTF-8" standalone="no"?>
<!DOCTYPE svg PUBLIC "-//W3C//DTD SVG 1.1//EN" "http://www.w3.org/Graphics/SVG/1.1/DTD/svg11.dtd">
<svg width="100%" height="100%" viewBox="0 0 500 110" version="1.1" xmlns="http://www.w3.org/2000/svg" xmlns:xlink="http://www.w3.org/1999/xlink" xml:space="preserve" xmlns:serif="http://www.serif.com/" style="fill-rule:evenodd;clip-rule:evenodd;stroke-linecap:round;stroke-linejoin:round;stroke-miterlimit:10;">
    <g transform="matrix(1.50184,0,0,1.13411,-69.9576,-514.192)">
        <rect x="46.581" y="453.389" width="332.926" height="96.992" style="fill:none;stroke:rgb(8,6,5);stroke-width:0.75px;"/>
    </g>
    <g transform="matrix(1.50184,0,0,1.50184,-69.9576,-681.636)">
        <path d="M94.47,487.517L97.538,490.909L93.931,494.192L75.575,494.192L72.507,490.855L76.167,487.517L94.47,487.517Z" style="fill:rgb(8,6,5);fill-rule:nonzero;"/>
    </g>
    <path d="M137.081,56.759L137.485,56.436L142.175,56.436L139.265,89.825L136.515,92.331L129.725,84.813L131.745,61.691L137.081,56.759Z" style="fill:rgb(8,6,5);fill-rule:nonzero;"/>
    <path d="M142.983,18.762L145.246,21.269L142.336,54.739L137.647,54.739L137.324,54.414L132.796,49.484L134.818,26.281L142.983,18.762Z" style="fill:rgb(8,6,5);fill-rule:nonzero;"/>
    <path d="M163.356,54.335L162.952,54.739L158.344,54.739L161.254,21.269L164.003,18.762L170.794,26.281L168.773,49.403L163.356,54.335Z" style="fill:rgb(8,6,5);fill-rule:nonzero;"/>
    <path d="M157.534,92.331L155.271,89.825L158.182,56.355L162.87,56.355L163.195,56.759L167.721,61.691L165.7,84.813L157.534,92.331Z" style="fill:rgb(8,6,5);fill-rule:nonzero;"/>
    <path d="M165.215,17.63L167.965,15.125L205.557,15.125L207.901,17.63L199.736,25.15L172.087,25.15L165.215,17.63Z" style="fill:rgb(8,6,5);fill-rule:nonzero;"/>
    <path d="M203.051,56.759L203.455,56.436L208.145,56.436L205.234,89.825L202.484,92.331L195.695,84.813L197.715,61.691L203.051,56.759Z" style="fill:rgb(8,6,5);fill-rule:nonzero;"/>
    <path d="M208.953,18.762L211.216,21.269L208.305,54.739L203.617,54.739L203.294,54.414L198.766,49.484L200.787,26.281L208.953,18.762Z" style="fill:rgb(8,6,5);fill-rule:nonzero;"/>
    <path d="M201.272,93.464L198.524,95.969L160.93,95.969L158.586,93.464L166.751,85.944L194.4,85.944L201.272,93.464Z" style="fill:rgb(8,6,5);fill-rule:nonzero;"/>
    <g>
        <path d="M230.376,38.004C230.645,38.65 230.78,39.297 230.78,39.944C230.78,40.59 230.645,41.237 230.376,41.885C230.108,42.53 229.756,43.07 229.325,43.501C228.894,43.932 228.355,44.283 227.709,44.552C227.062,44.821 226.415,44.956 225.769,44.956C225.121,44.956 224.474,44.821 223.828,44.552C223.181,44.283 222.642,43.932 222.211,43.501C221.78,43.07 221.43,42.53 221.16,41.885C220.891,41.237 220.756,40.59 220.756,39.944C220.756,39.297 220.891,38.65 221.16,38.004C221.43,37.411 221.78,36.899 222.211,36.468C222.75,35.982 223.289,35.606 223.828,35.335C224.314,35.12 224.959,35.012 225.769,35.012C226.577,35.012 227.224,35.12 227.709,35.335C228.247,35.606 228.786,35.982 229.325,36.468C229.756,36.899 230.108,37.411 230.376,38.004Z" style="fill:rgb(8,6,5);fill-rule:nonzero;"/>
        <path d="M227.466,71.312C227.736,71.959 227.87,72.605 227.87,73.252C227.87,73.899 227.736,74.545 227.466,75.192C227.197,75.84 226.846,76.377 226.415,76.808C225.984,77.241 225.444,77.591 224.799,77.86C224.151,78.13 223.504,78.264 222.858,78.264C222.211,78.264 221.564,78.13 220.918,77.86C220.271,77.591 219.731,77.241 219.3,76.808C218.869,76.377 218.519,75.84 218.249,75.192C217.98,74.545 217.845,73.899 217.845,73.252C217.845,72.605 217.98,71.959 218.249,71.312C218.519,70.718 218.869,70.206 219.3,69.775C219.84,69.236 220.379,68.859 220.918,68.644C221.403,68.428 222.049,68.32 222.858,68.32C223.666,68.32 224.314,68.428 224.799,68.644C225.338,68.859 225.875,69.236 226.415,69.775C226.846,70.206 227.197,70.718 227.466,71.312Z" style="fill:rgb(8,6,5);fill-rule:nonzero;"/>
    </g>
    <path d="M245.494,54.335L245.09,54.739L240.482,54.739L243.393,21.269L246.141,18.762L252.932,26.281L250.911,49.403L245.494,54.335Z" style="fill:rgb(8,6,5);fill-rule:nonzero;"/>
    <path d="M239.674,92.331L237.41,89.825L240.32,56.355L245.009,56.355L245.333,56.759L249.86,61.691L247.838,84.813L239.674,92.331Z" style="fill:rgb(8,6,5);fill-rule:nonzero;"/>
    <path d="M247.353,17.63L250.103,15.125L287.695,15.125L290.04,17.63L281.874,25.15L254.226,25.15L247.353,17.63Z" style="fill:rgb(8,6,5);fill-rule:nonzero;"/>
    <path d="M285.189,56.759L285.593,56.436L290.283,56.436L287.373,89.825L284.623,92.331L277.833,84.813L279.853,61.691L285.189,56.759Z" style="fill:rgb(8,6,5);fill-rule:nonzero;"/>
    <path d="M291.091,18.762L293.354,21.269L290.444,54.739L285.755,54.739L285.432,54.414L280.904,49.484L282.926,26.281L291.091,18.762Z" style="fill:rgb(8,6,5);fill-rule:nonzero;"/>
    <path d="M283.411,93.464L280.662,95.969L243.068,95.969L240.724,93.464L248.89,85.944L276.538,85.944L283.411,93.464Z" style="fill:rgb(8,6,5);fill-rule:nonzero;"/>
    <path d="M311.464,54.335L311.06,54.739L306.452,54.739L309.362,21.269L312.111,18.762L318.902,26.281L316.881,49.403L311.464,54.335Z" style="fill:rgb(8,6,5);fill-rule:nonzero;"/>
    <path d="M305.644,92.331L303.379,89.825L306.29,56.355L310.978,56.355L311.303,56.759L315.829,61.691L313.808,84.813L305.644,92.331Z" style="fill:rgb(8,6,5);fill-rule:nonzero;"/>
    <path d="M313.323,17.63L316.073,15.125L353.665,15.125L356.009,17.63L347.844,25.15L320.195,25.15L313.323,17.63Z" style="fill:rgb(8,6,5);fill-rule:nonzero;"/>
    <path d="M351.159,56.759L351.563,56.436L356.253,56.436L353.342,89.825L350.592,92.331L343.803,84.813L345.822,61.691L351.159,56.759Z" style="fill:rgb(8,6,5);fill-rule:nonzero;"/>
    <path d="M357.061,18.762L359.324,21.269L356.413,54.739L351.725,54.739L351.402,54.414L346.874,49.484L348.895,26.281L357.061,18.762Z" style="fill:rgb(8,6,5);fill-rule:nonzero;"/>
    <path d="M349.38,93.464L346.632,95.969L309.038,95.969L306.694,93.464L314.859,85.944L342.508,85.944L349.38,93.464Z" style="fill:rgb(8,6,5);fill-rule:nonzero;"/>
    <g transform="matrix(1.50184,0,0,1.50184,-69.9576,-610.816)">
        <path d="M289.875,465.985C290.055,466.416 290.145,466.846 290.145,467.277C290.145,467.708 290.055,468.138 289.875,468.569C289.696,468.999 289.463,469.358 289.176,469.645C288.889,469.933 288.53,470.166 288.099,470.345C287.668,470.525 287.238,470.614 286.807,470.614C286.376,470.614 285.946,470.525 285.515,470.345C285.085,470.166 284.726,469.933 284.439,469.645C284.151,469.358 283.918,468.999 283.739,468.569C283.559,468.138 283.47,467.708 283.47,467.277C283.47,466.846 283.559,466.416 283.739,465.985C283.918,465.554 284.151,465.195 284.439,464.908C284.726,464.621 285.085,464.388 285.515,464.209C285.946,464.029 286.376,463.939 286.807,463.939C287.238,463.939 287.668,464.029 288.099,464.209C288.53,464.388 288.889,464.621 289.176,464.908C289.463,465.195 289.696,465.554 289.875,465.985Z" style="fill:rgb(8,6,5);fill-rule:nonzero;"/>
    </g>
    <path d="M377.433,54.335L377.029,54.739L372.421,54.739L375.332,21.269L378.08,18.762L384.872,26.281L382.85,49.403L377.433,54.335Z" style="fill:rgb(8,6,5);fill-rule:nonzero;"/>
    <path d="M371.612,92.331L369.349,89.825L372.259,56.355L376.948,56.355L377.272,56.759L381.799,61.691L379.777,84.813L371.612,92.331Z" style="fill:rgb(8,6,5);fill-rule:nonzero;"/>
    <path d="M379.292,17.63L382.042,15.125L419.635,15.125L421.979,17.63L413.814,25.15L386.165,25.15L379.292,17.63Z" style="fill:rgb(8,6,5);fill-rule:nonzero;"/>
    <path d="M417.128,56.759L417.532,56.436L422.222,56.436L419.312,89.825L416.562,92.331L409.772,84.813L411.792,61.691L417.128,56.759Z" style="fill:rgb(8,6,5);fill-rule:nonzero;"/>
    <path d="M423.03,18.762L425.294,21.269L422.383,54.739L417.694,54.739L417.371,54.414L412.843,49.484L414.865,26.281L423.03,18.762Z" style="fill:rgb(8,6,5);fill-rule:nonzero;"/>
    <path d="M415.35,93.464L412.602,95.969L375.008,95.969L372.663,93.464L380.829,85.944L408.478,85.944L415.35,93.464Z" style="fill:rgb(8,6,5);fill-rule:nonzero;"/>
</svg>
