<?xml version="1.0" encoding="UTF-8" standalone="no"?>
<!DOCTYPE svg PUBLIC "-//W3C//DTD SVG 1.1//EN" "http://www.w3.org/Graphics/SVG/1.1/DTD/svg11.dtd">
<svg width="100%" height="100%" viewBox="0 0 500 110" version="1.1" xmlns="http://www.w3.org/2000/svg" xmlns:xlink="http://www.w3.org/1999/xlink" xml:space="preserve" xmlns:serif="http://www.serif.com/" style="fill-rule:evenodd;clip-rule:evenodd;stroke-linecap:round;stroke-linejoin:round;stroke-miterlimit:10;">
    <g transform="matrix(1.50184,0,0,1.13411,-69.9576,-514.192)">
        <rect x="46.581" y="453.389" width="332.926" height="96.992" style="fill:none;stroke:rgb(8,6,5);stroke-width:0.75px;"/>
    </g>
    <g transform="matrix(1.50184,0,0,1.50184,-69.9576,-681.636)">
        <path d="M94.47,487.517L97.538,490.909L93.931,494.192L75.575,494.192L72.507,490.855L76.167,487.517L94.47,487.517Z" style="fill:rgb(8,6,5);fill-rule:nonzero;"/>
    </g>
    <g transform="matrix(1.50184,0,0,1.50184,-69.9576,-681.635)">
        <path d="M134.089,487.516L137.157,490.908L133.551,494.191L115.195,494.191L112.126,490.854L115.787,487.516L134.089,487.516ZM111.426,490.047L111.157,490.316L108.089,490.316L110.027,468.03L111.857,466.361L116.379,471.367L115.033,486.763L111.426,490.047ZM107.551,515.347L106.043,513.678L107.981,491.392L111.103,491.392L111.319,491.661L114.333,494.945L112.987,510.341L107.551,515.347ZM112.664,465.607L114.495,463.939L139.526,463.939L141.087,465.607L135.65,470.614L117.24,470.614L112.664,465.607ZM137.857,491.661L138.126,491.446L141.249,491.446L139.311,513.678L137.48,515.347L132.959,510.341L134.304,494.945L137.857,491.661ZM141.787,466.361L143.294,468.03L141.356,490.316L138.234,490.316L138.019,490.1L135.004,486.817L136.35,471.367L141.787,466.361ZM136.673,516.101L134.843,517.769L109.811,517.769L108.25,516.101L113.687,511.094L132.097,511.094L136.673,516.101Z" style="fill:rgb(8,6,5);fill-rule:nonzero;"/>
    </g>
    <g transform="matrix(1.50184,0,0,1.50184,-69.9576,-610.816)">
        <path d="M147.332,465.985C147.511,466.416 147.601,466.846 147.601,467.277C147.601,467.708 147.511,468.138 147.332,468.569C147.152,468.999 146.919,469.358 146.632,469.645C146.345,469.933 145.986,470.166 145.555,470.345C145.124,470.525 144.694,470.614 144.263,470.614C143.832,470.614 143.402,470.525 142.971,470.345C142.541,470.166 142.182,469.933 141.895,469.645C141.607,469.358 141.374,468.999 141.195,468.569C141.015,468.138 140.926,467.708 140.926,467.277C140.926,466.846 141.015,466.416 141.195,465.985C141.374,465.554 141.607,465.195 141.895,464.908C142.182,464.621 142.541,464.388 142.971,464.209C143.402,464.029 143.832,463.939 144.263,463.939C144.694,463.939 145.124,464.029 145.555,464.209C145.986,464.388 146.345,464.621 146.632,464.908C146.919,465.195 147.152,465.554 147.332,465.985Z" style="fill:rgb(8,6,5);fill-rule:nonzero;"/>
    </g>
    <g transform="matrix(1.50184,0,0,1.50184,-69.9576,-681.635)">
        <path d="M178.015,487.516L181.083,490.908L177.477,494.191L159.12,494.191L156.052,490.854L159.713,487.516L178.015,487.516ZM155.352,490.047L155.083,490.316L152.015,490.316L153.953,468.03L155.783,466.361L160.305,471.367L158.959,486.763L155.352,490.047ZM151.476,515.347L149.969,513.678L151.907,491.392L155.029,491.392L155.245,491.661L158.259,494.945L156.913,510.341L151.476,515.347ZM156.59,465.607L158.421,463.939L183.452,463.939L185.013,465.607L179.576,470.614L161.166,470.614L156.59,465.607ZM181.783,491.661L182.052,491.446L185.175,491.446L183.237,513.678L181.406,515.347L176.885,510.341L178.23,494.945L181.783,491.661ZM185.713,466.361L187.22,468.03L185.282,490.316L182.16,490.316L181.945,490.1L178.93,486.817L180.276,471.367L185.713,466.361ZM180.599,516.101L178.769,517.769L153.737,517.769L152.176,516.101L157.613,511.094L176.023,511.094L180.599,516.101Z" style="fill:rgb(8,6,5);fill-rule:nonzero;"/>
    </g>
    <g transform="matrix(1.50184,0,0,1.50184,-69.9576,-610.816)">
        <path d="M191.257,465.985C191.437,466.416 191.527,466.846 191.527,467.277C191.527,467.708 191.437,468.138 191.257,468.569C191.078,468.999 190.845,469.358 190.558,469.645C190.271,469.933 189.912,470.166 189.481,470.345C189.05,470.525 188.62,470.614 188.189,470.614C187.758,470.614 187.328,470.525 186.897,470.345C186.466,470.166 186.108,469.933 185.821,469.645C185.533,469.358 185.3,468.999 185.121,468.569C184.941,468.138 184.852,467.708 184.852,467.277C184.852,466.846 184.941,466.416 185.121,465.985C185.3,465.554 185.533,465.195 185.821,464.908C186.108,464.621 186.466,464.388 186.897,464.209C187.328,464.029 187.758,463.939 188.189,463.939C188.62,463.939 189.05,464.029 189.481,464.209C189.912,464.388 190.271,464.621 190.558,464.908C190.845,465.195 191.078,465.554 191.257,465.985Z" style="fill:rgb(8,6,5);fill-rule:nonzero;"/>
    </g>
    <g transform="matrix(1.50184,0,0,1.50184,-69.9576,-679.453)">
        <path d="M199.978,477.72C200.157,478.15 200.247,478.581 200.247,479.012C200.247,479.442 200.157,479.873 199.978,480.304C199.799,480.734 199.565,481.093 199.278,481.38C198.991,481.667 198.632,481.901 198.202,482.08C197.771,482.259 197.34,482.349 196.91,482.349C196.479,482.349 196.048,482.259 195.618,482.08C195.187,481.901 194.828,481.667 194.541,481.38C194.254,481.093 194.021,480.734 193.841,480.304C193.662,479.873 193.572,479.442 193.572,479.012C193.572,478.581 193.662,478.15 193.841,477.72C194.021,477.325 194.254,476.984 194.541,476.697C194.9,476.374 195.259,476.123 195.618,475.943C195.941,475.8 196.371,475.728 196.91,475.728C197.448,475.728 197.879,475.8 198.202,475.943C198.56,476.123 198.919,476.374 199.278,476.697C199.565,476.984 199.799,477.325 199.978,477.72ZM198.04,499.898C198.22,500.329 198.309,500.759 198.309,501.19C198.309,501.621 198.22,502.051 198.04,502.482C197.861,502.913 197.627,503.271 197.34,503.558C197.053,503.846 196.694,504.079 196.264,504.258C195.833,504.438 195.402,504.527 194.972,504.527C194.541,504.527 194.11,504.438 193.68,504.258C193.249,504.079 192.89,503.846 192.603,503.558C192.316,503.271 192.083,502.913 191.903,502.482C191.724,502.051 191.634,501.621 191.634,501.19C191.634,500.759 191.724,500.329 191.903,499.898C192.083,499.503 192.316,499.162 192.603,498.875C192.962,498.516 193.321,498.265 193.68,498.122C194.003,497.978 194.433,497.906 194.972,497.906C195.51,497.906 195.941,497.978 196.264,498.122C196.623,498.265 196.981,498.516 197.34,498.875C197.627,499.162 197.861,499.503 198.04,499.898Z" style="fill:rgb(8,6,5);fill-rule:nonzero;"/>
    </g>
    <g transform="matrix(1.50184,0,0,1.50184,-69.9576,-681.635)">
        <path d="M232.707,487.516L235.776,490.908L232.169,494.191L213.813,494.191L210.744,490.854L214.405,487.516L232.707,487.516ZM210.044,490.047L209.775,490.316L206.707,490.316L208.645,468.03L210.475,466.361L214.997,471.367L213.651,486.763L210.044,490.047ZM206.169,515.347L204.661,513.678L206.599,491.392L209.721,491.392L209.937,491.661L212.951,494.945L211.605,510.341L206.169,515.347ZM211.282,465.607L213.113,463.939L238.144,463.939L239.705,465.607L234.268,470.614L215.858,470.614L211.282,465.607ZM236.475,491.661L236.744,491.446L239.867,491.446L237.929,513.678L236.098,515.347L231.577,510.341L232.922,494.945L236.475,491.661ZM240.405,466.361L241.912,468.03L239.974,490.316L236.852,490.316L236.637,490.1L233.622,486.817L234.968,471.367L240.405,466.361ZM235.291,516.101L233.461,517.769L208.429,517.769L206.868,516.101L212.305,511.094L230.715,511.094L235.291,516.101Z" style="fill:rgb(8,6,5);fill-rule:nonzero;"/>
    </g>
    <g transform="matrix(1.50184,0,0,1.50184,-69.9576,-610.816)">
        <path d="M245.95,465.985C246.129,466.416 246.219,466.846 246.219,467.277C246.219,467.708 246.129,468.138 245.95,468.569C245.77,468.999 245.537,469.358 245.25,469.645C244.963,469.933 244.604,470.166 244.173,470.345C243.742,470.525 243.312,470.614 242.881,470.614C242.451,470.614 242.02,470.525 241.589,470.345C241.159,470.166 240.8,469.933 240.513,469.645C240.226,469.358 239.992,468.999 239.813,468.569C239.633,468.138 239.544,467.708 239.544,467.277C239.544,466.846 239.633,466.416 239.813,465.985C239.992,465.554 240.226,465.195 240.513,464.908C240.8,464.621 241.159,464.388 241.589,464.209C242.02,464.029 242.451,463.939 242.881,463.939C243.312,463.939 243.742,464.029 244.173,464.209C244.604,464.388 244.963,464.621 245.25,464.908C245.537,465.195 245.77,465.554 245.95,465.985Z" style="fill:rgb(8,6,5);fill-rule:nonzero;"/>
    </g>
    <g transform="matrix(1.50184,0,0,1.50184,-69.9576,-681.635)">
        <path d="M276.633,487.516L279.701,490.908L276.095,494.191L257.738,494.191L254.67,490.854L258.331,487.516L276.633,487.516ZM253.97,490.047L253.701,490.316L250.633,490.316L252.571,468.03L254.401,466.361L258.923,471.367L257.577,486.763L253.97,490.047ZM250.095,515.347L248.587,513.678L250.525,491.392L253.647,491.392L253.863,491.661L256.877,494.945L255.531,510.341L250.095,515.347ZM255.208,465.607L257.039,463.939L282.07,463.939L283.631,465.607L278.194,470.614L259.784,470.614L255.208,465.607ZM280.401,491.661L280.67,491.446L283.793,491.446L281.855,513.678L280.024,515.347L275.503,510.341L276.848,494.945L280.401,491.661ZM284.331,466.361L285.838,468.03L283.9,490.316L280.778,490.316L280.563,490.1L277.548,486.817L278.894,471.367L284.331,466.361ZM279.217,516.101L277.387,517.769L252.355,517.769L250.794,516.101L256.231,511.094L274.641,511.094L279.217,516.101Z" style="fill:rgb(8,6,5);fill-rule:nonzero;"/>
    </g>
    <g transform="matrix(1.50184,0,0,1.50184,-69.9576,-610.816)">
        <path d="M289.875,465.985C290.055,466.416 290.145,466.846 290.145,467.277C290.145,467.708 290.055,468.138 289.875,468.569C289.696,468.999 289.463,469.358 289.176,469.645C288.889,469.933 288.53,470.166 288.099,470.345C287.668,470.525 287.238,470.614 286.807,470.614C286.376,470.614 285.946,470.525 285.515,470.345C285.085,470.166 284.726,469.933 284.439,469.645C284.151,469.358 283.918,468.999 283.739,468.569C283.559,468.138 283.47,467.708 283.47,467.277C283.47,466.846 283.559,466.416 283.739,465.985C283.918,465.554 284.151,465.195 284.439,464.908C284.726,464.621 285.085,464.388 285.515,464.209C285.946,464.029 286.376,463.939 286.807,463.939C287.238,463.939 287.668,464.029 288.099,464.209C288.53,464.388 288.889,464.621 289.176,464.908C289.463,465.195 289.696,465.554 289.875,465.985Z" style="fill:rgb(8,6,5);fill-rule:nonzero;"/>
    </g>
    <g transform="matrix(1.50184,0,0,1.50184,-69.9576,-681.635)">
        <path d="M320.559,487.516L323.627,490.908L320.021,494.191L301.664,494.191L298.596,490.854L302.257,487.516L320.559,487.516ZM297.896,490.047L297.627,490.316L294.559,490.316L296.497,468.03L298.327,466.361L302.849,471.367L301.503,486.763L297.896,490.047ZM294.02,515.347L292.513,513.678L294.451,491.392L297.573,491.392L297.789,491.661L300.803,494.945L299.457,510.341L294.02,515.347ZM299.134,465.607L300.965,463.939L325.996,463.939L327.557,465.607L322.12,470.614L303.71,470.614L299.134,465.607ZM324.327,491.661L324.596,491.446L327.719,491.446L325.781,513.678L323.95,515.347L319.429,510.341L320.774,494.945L324.327,491.661ZM328.257,466.361L329.764,468.03L327.826,490.316L324.704,490.316L324.489,490.1L321.474,486.817L322.82,471.367L328.257,466.361ZM323.143,516.101L321.313,517.769L296.281,517.769L294.72,516.101L300.157,511.094L318.567,511.094L323.143,516.101Z" style="fill:rgb(8,6,5);fill-rule:nonzero;"/>
    </g>
    <g transform="matrix(2.03079,0,0,1.9075,-257.926,-949.391)">
        <path d="M345.163,516.091L343.074,516.091L342.601,517.769L338.885,517.769L342.806,505.643L347.413,505.643L349.23,517.769L345.342,517.769L345.163,516.091ZM343.737,513.213L344.97,513.213L344.749,509.274L344.681,509.274L343.737,513.213Z" style="fill:rgb(8,6,5);fill-rule:nonzero;"/>
    </g>
    <g transform="matrix(2.03079,0,0,1.9075,-257.926,-949.391)">
        <path d="M359.239,510.849L359.17,510.849L357.057,517.769L354.694,517.769L353.912,510.849L353.843,510.849L353.392,517.769L350.052,517.769L351.113,505.643L355.549,505.643L356.416,511.98L356.485,511.98L358.444,505.643L363.154,505.643L362.093,517.769L358.462,517.769L359.239,510.849Z" style="fill:rgb(8,6,5);fill-rule:nonzero;"/>
    </g>
    <g transform="matrix(2.03079,0,0,1.9075,-254.256,-884.048)">
        <path d="M341.042,496.839L340.709,500.641L337.078,500.641L338.139,488.515L342.472,488.515C342.952,488.515 343.431,488.583 343.91,488.72C344.389,488.857 344.812,489.085 345.178,489.405C345.544,489.725 345.826,490.147 346.026,490.673C346.225,491.198 346.291,491.855 346.222,492.642C346.156,493.396 345.983,494.038 345.702,494.569C345.421,495.1 345.078,495.534 344.672,495.871C344.266,496.208 343.816,496.453 343.323,496.608C342.83,496.762 342.338,496.839 341.847,496.839L341.042,496.839ZM341.497,491.632L341.302,493.858L341.748,493.858C341.987,493.858 342.216,493.756 342.434,493.55C342.652,493.345 342.776,493.065 342.807,492.711C342.841,492.323 342.766,492.046 342.58,491.88C342.395,491.715 342.182,491.632 341.943,491.632L341.497,491.632Z" style="fill:rgb(8,6,5);fill-rule:nonzero;"/>
    </g>
    <g transform="matrix(2.03079,0,0,1.9075,-254.256,-884.048)">
        <path d="M355.89,493.721L355.822,493.721L353.709,500.641L351.345,500.641L350.563,493.721L350.495,493.721L350.044,500.641L346.704,500.641L347.765,488.515L352.201,488.515L353.068,494.852L353.137,494.852L355.095,488.515L359.806,488.515L358.745,500.641L355.114,500.641L355.89,493.721Z" style="fill:rgb(8,6,5);fill-rule:nonzero;"/>
    </g>
    <g transform="matrix(1.50184,0,0,1.50184,-69.9576,-709.377)">
        <path d="M71.392,500.945L72.247,500.945C73.185,500.945 73.957,500.173 73.957,499.235L69.682,499.235C69.682,500.173 70.454,500.945 71.392,500.945Z" style="fill:rgb(8,6,5);fill-rule:nonzero;"/>
    </g>
    <g transform="matrix(1.50184,0,0,1.50184,-69.9576,-737.011)">
        <path d="M78.019,512.932L77.948,512.932L77.144,508.144C76.894,506.281 75.683,504.679 73.957,503.933L73.957,503.938C73.957,502.765 72.992,501.8 71.82,501.8C70.647,501.8 69.682,502.765 69.682,503.938L69.682,503.933C67.957,504.679 66.745,506.281 66.496,508.144L65.692,512.932L65.62,512.932C64.565,512.932 63.697,513.801 63.697,514.856C63.697,515.912 64.565,516.78 65.62,516.78L78.019,516.78C79.074,516.78 79.943,515.912 79.943,514.856C79.943,513.801 79.074,512.932 78.019,512.932Z" style="fill:rgb(8,6,5);fill-rule:nonzero;"/>
    </g>
    <g transform="matrix(1.50184,0,0,1.50184,-69.9576,-618.342)">
        <path d="M358.928,467.686L358.03,467.686L358.03,471.878L358.928,471.878C359.425,471.878 359.827,471.476 359.827,470.98L359.827,468.585C359.827,468.088 359.425,467.686 358.928,467.686Z" style="fill:rgb(8,6,5);fill-rule:nonzero;"/>
    </g>
    <g transform="matrix(1.50184,0,0,1.50184,-69.9576,-617.893)">
        <path d="M357.589,466.331C357.589,465.011 356.517,463.939 355.198,463.939L337.824,463.939C336.504,463.939 335.433,465.011 335.433,466.331L335.433,472.935C335.433,474.255 336.504,475.326 337.824,475.326L355.198,475.326C356.517,475.326 357.589,474.255 357.589,472.935L357.589,466.331Z" style="fill:rgb(8,6,5);"/>
    </g>
    <g transform="matrix(1.50184,0,0,1.50184,-69.9576,-612.699)">
        <path d="M95.551,470.305C95.355,470.501 95.244,470.768 95.244,471.045C95.244,471.62 95.717,472.092 96.291,472.092C96.569,472.092 96.835,471.982 97.032,471.786L100.172,468.645C100.221,468.596 100.265,468.542 100.304,468.484C100.319,468.461 100.33,468.435 100.343,468.411C100.364,468.377 100.383,468.341 100.4,468.304C100.412,468.27 100.423,468.236 100.432,468.202C100.441,468.171 100.453,468.141 100.459,468.109C100.486,467.973 100.486,467.834 100.459,467.699C100.453,467.666 100.441,467.636 100.431,467.605C100.423,467.571 100.412,467.537 100.4,467.504C100.383,467.467 100.364,467.431 100.343,467.396C100.33,467.372 100.319,467.347 100.304,467.324C100.265,467.265 100.221,467.211 100.172,467.162L97.032,464.022C96.835,463.826 96.569,463.715 96.291,463.715C95.717,463.715 95.244,464.188 95.244,464.762C95.244,465.04 95.355,465.306 95.551,465.503L96.905,466.857L84.772,466.857C84.198,466.857 83.725,467.329 83.725,467.904C83.725,468.478 84.198,468.951 84.772,468.951L96.905,468.951L95.551,470.305Z" style="fill:rgb(8,6,5);fill-rule:nonzero;"/>
    </g>
    <g transform="matrix(1.50184,0,0,1.50184,-69.9576,-633.668)">
        <path d="M88.654,477.286L87.3,475.932L99.433,475.932C100.007,475.932 100.48,475.459 100.48,474.885C100.48,474.31 100.007,473.837 99.433,473.837L87.3,473.837L88.654,472.483C88.851,472.287 88.961,472.021 88.961,471.743C88.961,471.169 88.488,470.696 87.914,470.696C87.636,470.696 87.37,470.806 87.173,471.003L84.033,474.143C83.984,474.192 83.94,474.246 83.901,474.304C83.886,474.328 83.875,474.353 83.862,474.377C83.841,474.411 83.822,474.447 83.805,474.484C83.793,474.518 83.782,474.552 83.774,474.586C83.764,474.617 83.752,474.647 83.746,474.68C83.718,474.815 83.718,474.954 83.746,475.089C83.752,475.122 83.764,475.152 83.774,475.183C83.782,475.217 83.793,475.251 83.805,475.285C83.822,475.322 83.841,475.357 83.862,475.392C83.875,475.416 83.885,475.441 83.901,475.465C83.94,475.523 83.984,475.577 84.033,475.626L87.173,478.766C87.37,478.963 87.636,479.073 87.914,479.073C88.488,479.073 88.961,478.6 88.961,478.026C88.961,477.748 88.851,477.482 88.654,477.286Z" style="fill:rgb(8,6,5);fill-rule:nonzero;"/>
    </g>
    <g transform="matrix(1.50184,0,0,1.50184,-69.9576,-626.955)">
        <path d="M78.214,479.304C78.192,479.21 78.119,479.138 78.025,479.118C77.72,479.052 77.415,478.972 77.12,478.879C74.058,477.919 71.691,475.637 70.625,472.618C69.559,469.598 69.968,466.335 71.748,463.666C71.92,463.408 72.107,463.154 72.303,462.911C72.363,462.837 72.375,462.735 72.333,462.649C72.291,462.563 72.204,462.509 72.108,462.51C71.074,462.523 70.051,462.707 69.066,463.054C64.107,464.805 61.498,470.263 63.249,475.222C64.999,480.181 70.458,482.79 75.417,481.039C76.401,480.692 77.312,480.192 78.126,479.553C78.201,479.494 78.235,479.397 78.214,479.304Z" style="fill:rgb(8,6,5);fill-rule:nonzero;"/>
    </g>
    <g transform="matrix(0,1.50184,1.50184,0,-685.621,-105.661)">
        <ellipse cx="94.127" cy="504.068" rx="1.615" ry="1.615" style="fill:rgb(8,6,5);"/>
    </g>
    <g transform="matrix(1.50184,0,0,1.50184,-69.9576,-749.354)">
        <path d="M85.474,514.291C85.277,514.482 85.165,514.745 85.165,515.02C85.165,515.577 85.624,516.035 86.181,516.035C86.446,516.035 86.701,515.931 86.891,515.746C88.827,513.831 91.439,512.75 94.163,512.736C96.865,512.784 99.448,513.873 101.37,515.773C101.559,515.955 101.811,516.057 102.073,516.057C102.631,516.057 103.089,515.598 103.089,515.041C103.089,514.763 102.975,514.497 102.774,514.306C100.471,512.054 97.384,510.777 94.163,510.745C90.915,510.742 87.792,512.016 85.474,514.291Z" style="fill:rgb(8,6,5);fill-rule:nonzero;"/>
    </g>
    <g transform="matrix(1.50184,0,0,1.50184,-69.9576,-732.456)">
        <path d="M94.165,508.122C95.109,508.154 96.01,508.532 96.696,509.182C96.888,509.354 97.137,509.449 97.395,509.449C97.969,509.449 98.441,508.977 98.441,508.403C98.441,508.106 98.314,507.823 98.094,507.625C97.014,506.658 95.614,506.126 94.165,506.13C92.68,506.098 91.239,506.639 90.143,507.641C89.932,507.839 89.813,508.115 89.813,508.403C89.813,508.977 90.285,509.449 90.858,509.449C91.124,509.449 91.38,509.348 91.574,509.166C92.273,508.501 93.2,508.127 94.165,508.122Z" style="fill:rgb(8,6,5);fill-rule:nonzero;"/>
    </g>
    <g transform="matrix(1.50184,0,0,1.50184,-69.9576,-741.453)">
        <path d="M94.161,510.794C95.869,510.752 97.528,511.371 98.791,512.521C98.972,512.692 99.211,512.787 99.46,512.787C99.994,512.787 100.434,512.347 100.434,511.813C100.434,511.543 100.322,511.285 100.125,511.101C98.506,509.599 96.369,508.776 94.161,508.803C91.923,508.75 89.752,509.579 88.119,511.11C87.927,511.294 87.818,511.548 87.818,511.814C87.818,512.349 88.257,512.788 88.791,512.788C89.045,512.788 89.289,512.689 89.47,512.513C90.746,511.345 92.433,510.726 94.161,510.794Z" style="fill:rgb(8,6,5);fill-rule:nonzero;"/>
    </g>
</svg>
