<?xml version="1.0" encoding="UTF-8" standalone="no"?>
<!DOCTYPE svg PUBLIC "-//W3C//DTD SVG 1.1//EN" "http://www.w3.org/Graphics/SVG/1.1/DTD/svg11.dtd">
<svg width="100%" height="100%" viewBox="0 0 500 110" version="1.1" xmlns="http://www.w3.org/2000/svg" xmlns:xlink="http://www.w3.org/1999/xlink" xml:space="preserve" xmlns:serif="http://www.serif.com/" style="fill-rule:evenodd;clip-rule:evenodd;stroke-linecap:round;stroke-linejoin:round;stroke-miterlimit:10;">
    <g transform="matrix(1.50184,0,0,1.13411,-69.9576,-514.192)">
        <rect x="46.581" y="453.389" width="332.926" height="96.992" style="fill:none;stroke:rgb(8,6,5);stroke-width:0.75px;"/>
    </g>
    <path d="M97.386,54.335L96.982,54.739L92.374,54.739L95.285,21.269L98.033,18.762L104.824,26.281L102.803,49.403L97.386,54.335Z" style="fill:rgb(8,6,5);fill-rule:nonzero;"/>
    <path d="M99.245,17.63L101.995,15.125L139.587,15.125L141.932,17.63L133.766,25.15L106.118,25.15L99.245,17.63Z" style="fill:rgb(8,6,5);fill-rule:nonzero;"/>
    <path d="M137.081,56.759L137.485,56.436L142.175,56.436L139.265,89.825L136.515,92.331L129.725,84.813L131.745,61.691L137.081,56.759Z" style="fill:rgb(8,6,5);fill-rule:nonzero;"/>
    <path d="M142.983,18.762L145.246,21.269L142.336,54.739L137.647,54.739L137.324,54.414L132.796,49.484L134.818,26.281L142.983,18.762Z" style="fill:rgb(8,6,5);fill-rule:nonzero;"/>
    <path d="M197.392,50.534L201.999,55.628L196.584,60.559L169.014,60.559L164.407,55.547L169.905,50.534L197.392,50.534Z" style="fill:rgb(8,6,5);fill-rule:nonzero;"/>
    <path d="M157.534,92.331L155.271,89.825L158.182,56.355L162.87,56.355L163.195,56.759L167.721,61.691L165.7,84.813L157.534,92.331Z" style="fill:rgb(8,6,5);fill-rule:nonzero;"/>
    <path d="M165.215,17.63L167.965,15.125L205.557,15.125L207.901,17.63L199.736,25.15L172.087,25.15L165.215,17.63Z" style="fill:rgb(8,6,5);fill-rule:nonzero;"/>
    <path d="M208.953,18.762L211.216,21.269L208.305,54.739L203.617,54.739L203.294,54.414L198.766,49.484L200.787,26.281L208.953,18.762Z" style="fill:rgb(8,6,5);fill-rule:nonzero;"/>
    <path d="M201.272,93.464L198.524,95.969L160.93,95.969L158.586,93.464L166.751,85.944L194.4,85.944L201.272,93.464Z" style="fill:rgb(8,6,5);fill-rule:nonzero;"/>
    <g transform="matrix(1.50184,0,0,1.50184,-69.9576,-610.816)">
        <path d="M191.257,465.985C191.437,466.416 191.527,466.846 191.527,467.277C191.527,467.708 191.437,468.138 191.257,468.569C191.078,468.999 190.845,469.358 190.558,469.645C190.271,469.933 189.912,470.166 189.481,470.345C189.05,470.525 188.62,470.614 188.189,470.614C187.758,470.614 187.328,470.525 186.897,470.345C186.466,470.166 186.108,469.933 185.821,469.645C185.533,469.358 185.3,468.999 185.121,468.569C184.941,468.138 184.852,467.708 184.852,467.277C184.852,466.846 184.941,466.416 185.121,465.985C185.3,465.554 185.533,465.195 185.821,464.908C186.108,464.621 186.466,464.388 186.897,464.209C187.328,464.029 187.758,463.939 188.189,463.939C188.62,463.939 189.05,464.029 189.481,464.209C189.912,464.388 190.271,464.621 190.558,464.908C190.845,465.195 191.078,465.554 191.257,465.985Z" style="fill:rgb(8,6,5);fill-rule:nonzero;"/>
    </g>
    <path d="M279.53,50.534L284.139,55.628L278.722,60.559L251.154,60.559L246.545,55.547L252.043,50.534L279.53,50.534Z" style="fill:rgb(8,6,5);fill-rule:nonzero;"/>
    <path d="M245.494,54.335L245.09,54.739L240.482,54.739L243.393,21.269L246.141,18.762L252.932,26.281L250.911,49.403L245.494,54.335Z" style="fill:rgb(8,6,5);fill-rule:nonzero;"/>
    <path d="M285.189,56.759L285.593,56.436L290.283,56.436L287.373,89.825L284.623,92.331L277.833,84.813L279.853,61.691L285.189,56.759Z" style="fill:rgb(8,6,5);fill-rule:nonzero;"/>
    <path d="M291.091,18.762L293.354,21.269L290.444,54.739L285.755,54.739L285.432,54.414L280.904,49.484L282.926,26.281L291.091,18.762Z" style="fill:rgb(8,6,5);fill-rule:nonzero;"/>
    <path d="M345.5,50.534L350.107,55.628L344.692,60.559L317.122,60.559L312.515,55.547L318.013,50.534L345.5,50.534Z" style="fill:rgb(8,6,5);fill-rule:nonzero;"/>
    <path d="M311.464,54.335L311.06,54.739L306.452,54.739L309.362,21.269L312.111,18.762L318.902,26.281L316.881,49.403L311.464,54.335Z" style="fill:rgb(8,6,5);fill-rule:nonzero;"/>
    <path d="M313.323,17.63L316.073,15.125L353.665,15.125L356.009,17.63L347.844,25.15L320.195,25.15L313.323,17.63Z" style="fill:rgb(8,6,5);fill-rule:nonzero;"/>
    <path d="M357.061,18.762L359.324,21.269L356.413,54.739L351.725,54.739L351.402,54.414L346.874,49.484L348.895,26.281L357.061,18.762Z" style="fill:rgb(8,6,5);fill-rule:nonzero;"/>
    <path d="M411.469,50.534L416.077,55.628L410.661,60.559L383.092,60.559L378.484,55.547L383.983,50.534L411.469,50.534Z" style="fill:rgb(8,6,5);fill-rule:nonzero;"/>
    <path d="M377.433,54.335L377.029,54.739L372.421,54.739L375.332,21.269L378.08,18.762L384.872,26.281L382.85,49.403L377.433,54.335Z" style="fill:rgb(8,6,5);fill-rule:nonzero;"/>
    <path d="M371.612,92.331L369.349,89.825L372.259,56.355L376.948,56.355L377.272,56.759L381.799,61.691L379.777,84.813L371.612,92.331Z" style="fill:rgb(8,6,5);fill-rule:nonzero;"/>
    <path d="M379.292,17.63L382.042,15.125L419.635,15.125L421.979,17.63L413.814,25.15L386.165,25.15L379.292,17.63Z" style="fill:rgb(8,6,5);fill-rule:nonzero;"/>
</svg>
