<?xml version="1.0" encoding="UTF-8" standalone="no"?>
<!DOCTYPE svg PUBLIC "-//W3C//DTD SVG 1.1//EN" "http://www.w3.org/Graphics/SVG/1.1/DTD/svg11.dtd">
<svg width="100%" height="100%" viewBox="0 0 500 110" version="1.1" xmlns="http://www.w3.org/2000/svg" xmlns:xlink="http://www.w3.org/1999/xlink" xml:space="preserve" xmlns:serif="http://www.serif.com/" style="fill-rule:evenodd;clip-rule:evenodd;stroke-linecap:round;stroke-linejoin:round;stroke-miterlimit:10;">
    <g transform="matrix(1.50184,0,0,1.13411,-69.9576,-514.192)">
        <rect x="46.581" y="453.389" width="332.926" height="96.992" style="fill:none;stroke:rgb(8,6,5);stroke-width:0.75px;"/>
    </g>
    <path d="M131.422,50.534L136.03,55.628L130.614,60.559L103.046,60.559L98.437,55.547L103.935,50.534L131.422,50.534Z" style="fill:rgb(8,6,5);fill-rule:nonzero;"/>
    <path d="M97.386,54.335L96.982,54.739L92.374,54.739L95.285,21.269L98.033,18.762L104.824,26.281L102.803,49.403L97.386,54.335Z" style="fill:rgb(8,6,5);fill-rule:nonzero;"/>
    <path d="M91.566,92.331L89.302,89.825L92.212,56.355L96.901,56.355L97.225,56.759L101.752,61.691L99.73,84.813L91.566,92.331Z" style="fill:rgb(8,6,5);fill-rule:nonzero;"/>
    <path d="M137.081,56.759L137.485,56.436L142.175,56.436L139.265,89.825L136.515,92.331L129.725,84.813L131.745,61.691L137.081,56.759Z" style="fill:rgb(8,6,5);fill-rule:nonzero;"/>
    <path d="M142.983,18.762L145.246,21.269L142.336,54.739L137.647,54.739L137.324,54.414L132.796,49.484L134.818,26.281L142.983,18.762Z" style="fill:rgb(8,6,5);fill-rule:nonzero;"/>
    <path d="M135.303,93.464L132.554,95.969L94.96,95.969L92.616,93.464L100.782,85.944L128.43,85.944L135.303,93.464Z" style="fill:rgb(8,6,5);fill-rule:nonzero;"/>
    <path d="M157.534,92.331L155.271,89.825L158.182,56.355L162.87,56.355L163.195,56.759L167.721,61.691L165.7,84.813L157.534,92.331Z" style="fill:rgb(8,6,5);fill-rule:nonzero;"/>
    <path d="M279.53,50.534L284.139,55.628L278.722,60.559L251.154,60.559L246.545,55.547L252.043,50.534L279.53,50.534Z" style="fill:rgb(8,6,5);fill-rule:nonzero;"/>
    <path d="M245.494,54.335L245.09,54.739L240.482,54.739L243.393,21.269L246.141,18.762L252.932,26.281L250.911,49.403L245.494,54.335Z" style="fill:rgb(8,6,5);fill-rule:nonzero;"/>
    <path d="M239.674,92.331L237.41,89.825L240.32,56.355L245.009,56.355L245.333,56.759L249.86,61.691L247.838,84.813L239.674,92.331Z" style="fill:rgb(8,6,5);fill-rule:nonzero;"/>
    <path d="M247.353,17.63L250.103,15.125L287.695,15.125L290.04,17.63L281.874,25.15L254.226,25.15L247.353,17.63Z" style="fill:rgb(8,6,5);fill-rule:nonzero;"/>
    <path d="M305.644,92.331L303.379,89.825L306.29,56.355L310.978,56.355L311.303,56.759L315.829,61.691L313.808,84.813L305.644,92.331Z" style="fill:rgb(8,6,5);fill-rule:nonzero;"/>
</svg>
