<?xml version="1.0" encoding="UTF-8" standalone="no"?>
<!DOCTYPE svg PUBLIC "-//W3C//DTD SVG 1.1//EN" "http://www.w3.org/Graphics/SVG/1.1/DTD/svg11.dtd">
<svg width="100%" height="100%" viewBox="0 0 500 110" version="1.1" xmlns="http://www.w3.org/2000/svg" xmlns:xlink="http://www.w3.org/1999/xlink" xml:space="preserve" xmlns:serif="http://www.serif.com/" style="fill-rule:evenodd;clip-rule:evenodd;stroke-linecap:round;stroke-linejoin:round;stroke-miterlimit:10;">
    <g transform="matrix(1.50184,0,0,1.13411,-69.9576,-514.192)">
        <rect x="46.581" y="453.389" width="332.926" height="96.992" style="fill:none;stroke:rgb(8,6,5);stroke-width:0.75px;"/>
    </g>
    <path d="M97.386,54.335L96.982,54.739L92.374,54.739L95.285,21.269L98.033,18.762L104.824,26.281L102.803,49.403L97.386,54.335Z" style="fill:rgb(8,6,5);fill-rule:nonzero;"/>
    <path d="M91.566,92.331L89.302,89.825L92.212,56.355L96.901,56.355L97.225,56.759L101.752,61.691L99.73,84.813L91.566,92.331Z" style="fill:rgb(8,6,5);fill-rule:nonzero;"/>
    <path d="M99.245,17.63L101.995,15.125L139.587,15.125L141.932,17.63L133.766,25.15L106.118,25.15L99.245,17.63Z" style="fill:rgb(8,6,5);fill-rule:nonzero;"/>
    <path d="M142.983,18.762L145.246,21.269L142.336,54.739L137.647,54.739L137.324,54.414L132.796,49.484L134.818,26.281L142.983,18.762Z" style="fill:rgb(8,6,5);fill-rule:nonzero;"/>
    <path d="M163.356,54.335L162.952,54.739L158.344,54.739L161.254,21.269L164.003,18.762L170.794,26.281L168.773,49.403L163.356,54.335Z" style="fill:rgb(8,6,5);fill-rule:nonzero;"/>
    <path d="M165.215,17.63L167.965,15.125L205.557,15.125L207.901,17.63L199.736,25.15L172.087,25.15L165.215,17.63Z" style="fill:rgb(8,6,5);fill-rule:nonzero;"/>
    <path d="M203.051,56.759L203.455,56.436L208.145,56.436L205.234,89.825L202.484,92.331L195.695,84.813L197.715,61.691L203.051,56.759Z" style="fill:rgb(8,6,5);fill-rule:nonzero;"/>
    <path d="M208.953,18.762L211.216,21.269L208.305,54.739L203.617,54.739L203.294,54.414L198.766,49.484L200.787,26.281L208.953,18.762Z" style="fill:rgb(8,6,5);fill-rule:nonzero;"/>
    <path d="M279.53,50.534L284.139,55.628L278.722,60.559L251.154,60.559L246.545,55.547L252.043,50.534L279.53,50.534Z" style="fill:rgb(8,6,5);fill-rule:nonzero;"/>
    <path d="M245.494,54.335L245.09,54.739L240.482,54.739L243.393,21.269L246.141,18.762L252.932,26.281L250.911,49.403L245.494,54.335Z" style="fill:rgb(8,6,5);fill-rule:nonzero;"/>
    <path d="M239.674,92.331L237.41,89.825L240.32,56.355L245.009,56.355L245.333,56.759L249.86,61.691L247.838,84.813L239.674,92.331Z" style="fill:rgb(8,6,5);fill-rule:nonzero;"/>
    <path d="M247.353,17.63L250.103,15.125L287.695,15.125L290.04,17.63L281.874,25.15L254.226,25.15L247.353,17.63Z" style="fill:rgb(8,6,5);fill-rule:nonzero;"/>
    <path d="M285.189,56.759L285.593,56.436L290.283,56.436L287.373,89.825L284.623,92.331L277.833,84.813L279.853,61.691L285.189,56.759Z" style="fill:rgb(8,6,5);fill-rule:nonzero;"/>
    <path d="M291.091,18.762L293.354,21.269L290.444,54.739L285.755,54.739L285.432,54.414L280.904,49.484L282.926,26.281L291.091,18.762Z" style="fill:rgb(8,6,5);fill-rule:nonzero;"/>
    <path d="M305.644,92.331L303.379,89.825L306.29,56.355L310.978,56.355L311.303,56.759L315.829,61.691L313.808,84.813L305.644,92.331Z" style="fill:rgb(8,6,5);fill-rule:nonzero;"/>
    <path d="M411.469,50.534L416.077,55.628L410.661,60.559L383.092,60.559L378.484,55.547L383.983,50.534L411.469,50.534Z" style="fill:rgb(8,6,5);fill-rule:nonzero;"/>
    <path d="M371.612,92.331L369.349,89.825L372.259,56.355L376.948,56.355L377.272,56.759L381.799,61.691L379.777,84.813L371.612,92.331Z" style="fill:rgb(8,6,5);fill-rule:nonzero;"/>
    <path d="M417.128,56.759L417.532,56.436L422.222,56.436L419.312,89.825L416.562,92.331L409.772,84.813L411.792,61.691L417.128,56.759Z" style="fill:rgb(8,6,5);fill-rule:nonzero;"/>
</svg>
