<?xml version="1.0" encoding="UTF-8" standalone="no"?>
<!DOCTYPE svg PUBLIC "-//W3C//DTD SVG 1.1//EN" "http://www.w3.org/Graphics/SVG/1.1/DTD/svg11.dtd">
<svg width="100%" height="100%" viewBox="0 0 500 110" version="1.1" xmlns="http://www.w3.org/2000/svg" xmlns:xlink="http://www.w3.org/1999/xlink" xml:space="preserve" xmlns:serif="http://www.serif.com/" style="fill-rule:evenodd;clip-rule:evenodd;stroke-linecap:round;stroke-linejoin:round;stroke-miterlimit:10;">
    <g transform="matrix(1.50184,0,0,1.13411,-69.9576,-514.192)">
        <rect x="46.581" y="453.389" width="332.926" height="96.992" style="fill:none;stroke:rgb(8,6,5);stroke-width:0.75px;"/>
    </g>
    <g>
        <g transform="matrix(2.03079,0,0,1.9075,-257.926,-949.391)">
            <path d="M345.163,516.091L343.074,516.091L342.601,517.769L338.885,517.769L342.806,505.643L347.413,505.643L349.23,517.769L345.342,517.769L345.163,516.091ZM343.737,513.213L344.97,513.213L344.749,509.274L344.681,509.274L343.737,513.213Z" style="fill:rgb(8,6,5);fill-rule:nonzero;"/>
        </g>
        <g transform="matrix(2.03079,0,0,1.9075,-257.926,-949.391)">
            <path d="M359.239,510.849L359.17,510.849L357.057,517.769L354.694,517.769L353.912,510.849L353.843,510.849L353.392,517.769L350.052,517.769L351.113,505.643L355.549,505.643L356.416,511.98L356.485,511.98L358.444,505.643L363.154,505.643L362.093,517.769L358.462,517.769L359.239,510.849Z" style="fill:rgb(8,6,5);fill-rule:nonzero;"/>
        </g>
    </g>
    <g>
        <g transform="matrix(2.03079,0,0,1.9075,-254.256,-884.048)">
            <path d="M341.042,496.839L340.709,500.641L337.078,500.641L338.139,488.515L342.472,488.515C342.952,488.515 343.431,488.583 343.91,488.72C344.389,488.857 344.812,489.085 345.178,489.405C345.544,489.725 345.826,490.147 346.026,490.673C346.225,491.198 346.291,491.855 346.222,492.642C346.156,493.396 345.983,494.038 345.702,494.569C345.421,495.1 345.078,495.534 344.672,495.871C344.266,496.208 343.816,496.453 343.323,496.608C342.83,496.762 342.338,496.839 341.847,496.839L341.042,496.839ZM341.497,491.632L341.302,493.858L341.748,493.858C341.987,493.858 342.216,493.756 342.434,493.55C342.652,493.345 342.776,493.065 342.807,492.711C342.841,492.323 342.766,492.046 342.58,491.88C342.395,491.715 342.182,491.632 341.943,491.632L341.497,491.632Z" style="fill:rgb(8,6,5);fill-rule:nonzero;"/>
        </g>
        <g transform="matrix(2.03079,0,0,1.9075,-254.256,-884.048)">
            <path d="M355.89,493.721L355.822,493.721L353.709,500.641L351.345,500.641L350.563,493.721L350.495,493.721L350.044,500.641L346.704,500.641L347.765,488.515L352.201,488.515L353.068,494.852L353.137,494.852L355.095,488.515L359.806,488.515L358.745,500.641L355.114,500.641L355.89,493.721Z" style="fill:rgb(8,6,5);fill-rule:nonzero;"/>
        </g>
    </g>
    <g>
        <g transform="matrix(1.50184,0,0,1.50184,-69.9576,-709.377)">
            <path d="M71.392,500.945L72.247,500.945C73.185,500.945 73.957,500.173 73.957,499.235L69.682,499.235C69.682,500.173 70.454,500.945 71.392,500.945Z" style="fill:rgb(8,6,5);fill-rule:nonzero;"/>
        </g>
        <g transform="matrix(1.50184,0,0,1.50184,-69.9576,-737.011)">
            <path d="M78.019,512.932L77.948,512.932L77.144,508.144C76.894,506.281 75.683,504.679 73.957,503.933L73.957,503.938C73.957,502.765 72.992,501.8 71.82,501.8C70.647,501.8 69.682,502.765 69.682,503.938L69.682,503.933C67.957,504.679 66.745,506.281 66.496,508.144L65.692,512.932L65.62,512.932C64.565,512.932 63.697,513.801 63.697,514.856C63.697,515.912 64.565,516.78 65.62,516.78L78.019,516.78C79.074,516.78 79.943,515.912 79.943,514.856C79.943,513.801 79.074,512.932 78.019,512.932Z" style="fill:rgb(8,6,5);fill-rule:nonzero;"/>
        </g>
    </g>
    <g>
        <g transform="matrix(1.50184,0,0,1.50184,-69.9576,-618.342)">
            <path d="M358.928,467.686L358.03,467.686L358.03,471.878L358.928,471.878C359.425,471.878 359.827,471.476 359.827,470.98L359.827,468.585C359.827,468.088 359.425,467.686 358.928,467.686Z" style="fill:rgb(8,6,5);fill-rule:nonzero;"/>
        </g>
        <g transform="matrix(1.50184,0,0,1.50184,-69.9576,-617.893)">
            <path d="M357.589,466.331C357.589,465.011 356.517,463.939 355.198,463.939L337.824,463.939C336.504,463.939 335.433,465.011 335.433,466.331L335.433,472.935C335.433,474.255 336.504,475.326 337.824,475.326L355.198,475.326C356.517,475.326 357.589,474.255 357.589,472.935L357.589,466.331Z" style="fill:rgb(8,6,5);"/>
        </g>
    </g>
    <g>
        <g transform="matrix(1.50184,0,0,1.50184,-69.9576,-612.699)">
            <path d="M95.551,470.305C95.355,470.501 95.244,470.768 95.244,471.045C95.244,471.62 95.717,472.092 96.291,472.092C96.569,472.092 96.835,471.982 97.032,471.786L100.172,468.645C100.221,468.596 100.265,468.542 100.304,468.484C100.319,468.461 100.33,468.435 100.343,468.411C100.364,468.377 100.383,468.341 100.4,468.304C100.412,468.27 100.423,468.236 100.432,468.202C100.441,468.171 100.453,468.141 100.459,468.109C100.486,467.973 100.486,467.834 100.459,467.699C100.453,467.666 100.441,467.636 100.431,467.605C100.423,467.571 100.412,467.537 100.4,467.504C100.383,467.467 100.364,467.431 100.343,467.396C100.33,467.372 100.319,467.347 100.304,467.324C100.265,467.265 100.221,467.211 100.172,467.162L97.032,464.022C96.835,463.826 96.569,463.715 96.291,463.715C95.717,463.715 95.244,464.188 95.244,464.762C95.244,465.04 95.355,465.306 95.551,465.503L96.905,466.857L84.772,466.857C84.198,466.857 83.725,467.329 83.725,467.904C83.725,468.478 84.198,468.951 84.772,468.951L96.905,468.951L95.551,470.305Z" style="fill:rgb(8,6,5);fill-rule:nonzero;"/>
        </g>
        <g transform="matrix(1.50184,0,0,1.50184,-69.9576,-633.668)">
            <path d="M88.654,477.286L87.3,475.932L99.433,475.932C100.007,475.932 100.48,475.459 100.48,474.885C100.48,474.31 100.007,473.837 99.433,473.837L87.3,473.837L88.654,472.483C88.851,472.287 88.961,472.021 88.961,471.743C88.961,471.169 88.488,470.696 87.914,470.696C87.636,470.696 87.37,470.806 87.173,471.003L84.033,474.143C83.984,474.192 83.94,474.246 83.901,474.304C83.886,474.328 83.875,474.353 83.862,474.377C83.841,474.411 83.822,474.447 83.805,474.484C83.793,474.518 83.782,474.552 83.774,474.586C83.764,474.617 83.752,474.647 83.746,474.68C83.718,474.815 83.718,474.954 83.746,475.089C83.752,475.122 83.764,475.152 83.774,475.183C83.782,475.217 83.793,475.251 83.805,475.285C83.822,475.322 83.841,475.357 83.862,475.392C83.875,475.416 83.885,475.441 83.901,475.465C83.94,475.523 83.984,475.577 84.033,475.626L87.173,478.766C87.37,478.963 87.636,479.073 87.914,479.073C88.488,479.073 88.961,478.6 88.961,478.026C88.961,477.748 88.851,477.482 88.654,477.286Z" style="fill:rgb(8,6,5);fill-rule:nonzero;"/>
        </g>
    </g>
    <g transform="matrix(1.50184,0,0,1.50184,-69.9576,-626.955)">
        <path d="M78.214,479.304C78.192,479.21 78.119,479.138 78.025,479.118C77.72,479.052 77.415,478.972 77.12,478.879C74.058,477.919 71.691,475.637 70.625,472.618C69.559,469.598 69.968,466.335 71.748,463.666C71.92,463.408 72.107,463.154 72.303,462.911C72.363,462.837 72.375,462.735 72.333,462.649C72.291,462.563 72.204,462.509 72.108,462.51C71.074,462.523 70.051,462.707 69.066,463.054C64.107,464.805 61.498,470.263 63.249,475.222C64.999,480.181 70.458,482.79 75.417,481.039C76.401,480.692 77.312,480.192 78.126,479.553C78.201,479.494 78.235,479.397 78.214,479.304Z" style="fill:rgb(8,6,5);fill-rule:nonzero;"/>
    </g>
    <g>
        <g transform="matrix(0,1.50184,1.50184,0,-685.621,-105.661)">
            <ellipse cx="94.127" cy="504.068" rx="1.615" ry="1.615" style="fill:rgb(8,6,5);"/>
        </g>
        <g transform="matrix(1.50184,0,0,1.50184,-69.9576,-749.354)">
            <path d="M85.474,514.291C85.277,514.482 85.165,514.745 85.165,515.02C85.165,515.577 85.624,516.035 86.181,516.035C86.446,516.035 86.701,515.931 86.891,515.746C88.827,513.831 91.439,512.75 94.163,512.736C96.865,512.784 99.448,513.873 101.37,515.773C101.559,515.955 101.811,516.057 102.073,516.057C102.631,516.057 103.089,515.598 103.089,515.041C103.089,514.763 102.975,514.497 102.774,514.306C100.471,512.054 97.384,510.777 94.163,510.745C90.915,510.742 87.792,512.016 85.474,514.291Z" style="fill:rgb(8,6,5);fill-rule:nonzero;"/>
        </g>
        <g transform="matrix(1.50184,0,0,1.50184,-69.9576,-732.456)">
            <path d="M94.165,508.122C95.109,508.154 96.01,508.532 96.696,509.182C96.888,509.354 97.137,509.449 97.395,509.449C97.969,509.449 98.441,508.977 98.441,508.403C98.441,508.106 98.314,507.823 98.094,507.625C97.014,506.658 95.614,506.126 94.165,506.13C92.68,506.098 91.239,506.639 90.143,507.641C89.932,507.839 89.813,508.115 89.813,508.403C89.813,508.977 90.285,509.449 90.858,509.449C91.124,509.449 91.38,509.348 91.574,509.166C92.273,508.501 93.2,508.127 94.165,508.122Z" style="fill:rgb(8,6,5);fill-rule:nonzero;"/>
        </g>
        <g transform="matrix(1.50184,0,0,1.50184,-69.9576,-741.453)">
            <path d="M94.161,510.794C95.869,510.752 97.528,511.371 98.791,512.521C98.972,512.692 99.211,512.787 99.46,512.787C99.994,512.787 100.434,512.347 100.434,511.813C100.434,511.543 100.322,511.285 100.125,511.101C98.506,509.599 96.369,508.776 94.161,508.803C91.923,508.75 89.752,509.579 88.119,511.11C87.927,511.294 87.818,511.548 87.818,511.814C87.818,512.349 88.257,512.788 88.791,512.788C89.045,512.788 89.289,512.689 89.47,512.513C90.746,511.345 92.433,510.726 94.161,510.794Z" style="fill:rgb(8,6,5);fill-rule:nonzero;"/>
        </g>
    </g>
</svg>
