<?xml version="1.0" encoding="UTF-8" standalone="no"?>
<!DOCTYPE svg PUBLIC "-//W3C//DTD SVG 1.1//EN" "http://www.w3.org/Graphics/SVG/1.1/DTD/svg11.dtd">
<svg width="100%" height="100%" viewBox="0 0 500 110" version="1.1" xmlns="http://www.w3.org/2000/svg" xmlns:xlink="http://www.w3.org/1999/xlink" xml:space="preserve" xmlns:serif="http://www.serif.com/" style="fill-rule:evenodd;clip-rule:evenodd;stroke-linecap:round;stroke-linejoin:round;stroke-miterlimit:10;">
    <g transform="matrix(1.50184,0,0,1.13411,-69.9576,-514.192)">
        <rect x="46.581" y="453.389" width="332.926" height="96.992" style="fill:none;stroke:rgb(8,6,5);stroke-width:0.75px;"/>
    </g>
    <g transform="matrix(1.50184,0,0,1.50184,-69.9576,-681.636)">
        <path d="M94.47,487.517L97.538,490.909L93.931,494.192L75.575,494.192L72.507,490.855L76.167,487.517L94.47,487.517Z" style="fill:rgb(8,6,5);fill-rule:nonzero;"/>
    </g>
    <path d="M131.422,50.534L136.03,55.628L130.614,60.559L103.046,60.559L98.437,55.547L103.935,50.534L131.422,50.534Z" style="fill:rgb(8,6,5);fill-rule:nonzero;"/>
    <path d="M97.386,54.335L96.982,54.739L92.374,54.739L95.285,21.269L98.033,18.762L104.824,26.281L102.803,49.403L97.386,54.335Z" style="fill:rgb(8,6,5);fill-rule:nonzero;"/>
    <path d="M91.566,92.331L89.302,89.825L92.212,56.355L96.901,56.355L97.225,56.759L101.752,61.691L99.73,84.813L91.566,92.331Z" style="fill:rgb(8,6,5);fill-rule:nonzero;"/>
    <path d="M99.245,17.63L101.995,15.125L139.587,15.125L141.932,17.63L133.766,25.15L106.118,25.15L99.245,17.63Z" style="fill:rgb(8,6,5);fill-rule:nonzero;"/>
    <path d="M137.081,56.759L137.485,56.436L142.175,56.436L139.265,89.825L136.515,92.331L129.725,84.813L131.745,61.691L137.081,56.759Z" style="fill:rgb(8,6,5);fill-rule:nonzero;"/>
    <path d="M142.983,18.762L145.246,21.269L142.336,54.739L137.647,54.739L137.324,54.414L132.796,49.484L134.818,26.281L142.983,18.762Z" style="fill:rgb(8,6,5);fill-rule:nonzero;"/>
    <path d="M135.303,93.464L132.554,95.969L94.96,95.969L92.616,93.464L100.782,85.944L128.43,85.944L135.303,93.464Z" style="fill:rgb(8,6,5);fill-rule:nonzero;"/>
    <g transform="matrix(1.50184,0,0,1.50184,-69.9576,-610.816)">
        <path d="M147.332,465.985C147.511,466.416 147.601,466.846 147.601,467.277C147.601,467.708 147.511,468.138 147.332,468.569C147.152,468.999 146.919,469.358 146.632,469.645C146.345,469.933 145.986,470.166 145.555,470.345C145.124,470.525 144.694,470.614 144.263,470.614C143.832,470.614 143.402,470.525 142.971,470.345C142.541,470.166 142.182,469.933 141.895,469.645C141.607,469.358 141.374,468.999 141.195,468.569C141.015,468.138 140.926,467.708 140.926,467.277C140.926,466.846 141.015,466.416 141.195,465.985C141.374,465.554 141.607,465.195 141.895,464.908C142.182,464.621 142.541,464.388 142.971,464.209C143.402,464.029 143.832,463.939 144.263,463.939C144.694,463.939 145.124,464.029 145.555,464.209C145.986,464.388 146.345,464.621 146.632,464.908C146.919,465.195 147.152,465.554 147.332,465.985Z" style="fill:rgb(8,6,5);fill-rule:nonzero;"/>
    </g>
    <path d="M197.392,50.534L201.999,55.628L196.584,60.559L169.014,60.559L164.407,55.547L169.905,50.534L197.392,50.534Z" style="fill:rgb(8,6,5);fill-rule:nonzero;"/>
    <path d="M163.356,54.335L162.952,54.739L158.344,54.739L161.254,21.269L164.003,18.762L170.794,26.281L168.773,49.403L163.356,54.335Z" style="fill:rgb(8,6,5);fill-rule:nonzero;"/>
    <path d="M157.534,92.331L155.271,89.825L158.182,56.355L162.87,56.355L163.195,56.759L167.721,61.691L165.7,84.813L157.534,92.331Z" style="fill:rgb(8,6,5);fill-rule:nonzero;"/>
    <path d="M165.215,17.63L167.965,15.125L205.557,15.125L207.901,17.63L199.736,25.15L172.087,25.15L165.215,17.63Z" style="fill:rgb(8,6,5);fill-rule:nonzero;"/>
    <path d="M203.051,56.759L203.455,56.436L208.145,56.436L205.234,89.825L202.484,92.331L195.695,84.813L197.715,61.691L203.051,56.759Z" style="fill:rgb(8,6,5);fill-rule:nonzero;"/>
    <path d="M208.953,18.762L211.216,21.269L208.305,54.739L203.617,54.739L203.294,54.414L198.766,49.484L200.787,26.281L208.953,18.762Z" style="fill:rgb(8,6,5);fill-rule:nonzero;"/>
    <path d="M201.272,93.464L198.524,95.969L160.93,95.969L158.586,93.464L166.751,85.944L194.4,85.944L201.272,93.464Z" style="fill:rgb(8,6,5);fill-rule:nonzero;"/>
    <g transform="matrix(1.50184,0,0,1.50184,-69.9576,-610.816)">
        <path d="M191.257,465.985C191.437,466.416 191.527,466.846 191.527,467.277C191.527,467.708 191.437,468.138 191.257,468.569C191.078,468.999 190.845,469.358 190.558,469.645C190.271,469.933 189.912,470.166 189.481,470.345C189.05,470.525 188.62,470.614 188.189,470.614C187.758,470.614 187.328,470.525 186.897,470.345C186.466,470.166 186.108,469.933 185.821,469.645C185.533,469.358 185.3,468.999 185.121,468.569C184.941,468.138 184.852,467.708 184.852,467.277C184.852,466.846 184.941,466.416 185.121,465.985C185.3,465.554 185.533,465.195 185.821,464.908C186.108,464.621 186.466,464.388 186.897,464.209C187.328,464.029 187.758,463.939 188.189,463.939C188.62,463.939 189.05,464.029 189.481,464.209C189.912,464.388 190.271,464.621 190.558,464.908C190.845,465.195 191.078,465.554 191.257,465.985Z" style="fill:rgb(8,6,5);fill-rule:nonzero;"/>
    </g>
    <g>
        <path d="M230.376,38.004C230.645,38.65 230.78,39.297 230.78,39.944C230.78,40.59 230.645,41.237 230.376,41.885C230.108,42.53 229.756,43.07 229.325,43.501C228.894,43.932 228.355,44.283 227.709,44.552C227.062,44.821 226.415,44.956 225.769,44.956C225.121,44.956 224.474,44.821 223.828,44.552C223.181,44.283 222.642,43.932 222.211,43.501C221.78,43.07 221.43,42.53 221.16,41.885C220.891,41.237 220.756,40.59 220.756,39.944C220.756,39.297 220.891,38.65 221.16,38.004C221.43,37.411 221.78,36.899 222.211,36.468C222.75,35.982 223.289,35.606 223.828,35.335C224.314,35.12 224.959,35.012 225.769,35.012C226.577,35.012 227.224,35.12 227.709,35.335C228.247,35.606 228.786,35.982 229.325,36.468C229.756,36.899 230.108,37.411 230.376,38.004Z" style="fill:rgb(8,6,5);fill-rule:nonzero;"/>
        <path d="M227.466,71.312C227.736,71.959 227.87,72.605 227.87,73.252C227.87,73.899 227.736,74.545 227.466,75.192C227.197,75.84 226.846,76.377 226.415,76.808C225.984,77.241 225.444,77.591 224.799,77.86C224.151,78.13 223.504,78.264 222.858,78.264C222.211,78.264 221.564,78.13 220.918,77.86C220.271,77.591 219.731,77.241 219.3,76.808C218.869,76.377 218.519,75.84 218.249,75.192C217.98,74.545 217.845,73.899 217.845,73.252C217.845,72.605 217.98,71.959 218.249,71.312C218.519,70.718 218.869,70.206 219.3,69.775C219.84,69.236 220.379,68.859 220.918,68.644C221.403,68.428 222.049,68.32 222.858,68.32C223.666,68.32 224.314,68.428 224.799,68.644C225.338,68.859 225.875,69.236 226.415,69.775C226.846,70.206 227.197,70.718 227.466,71.312Z" style="fill:rgb(8,6,5);fill-rule:nonzero;"/>
    </g>
    <path d="M279.53,50.534L284.139,55.628L278.722,60.559L251.154,60.559L246.545,55.547L252.043,50.534L279.53,50.534Z" style="fill:rgb(8,6,5);fill-rule:nonzero;"/>
    <path d="M245.494,54.335L245.09,54.739L240.482,54.739L243.393,21.269L246.141,18.762L252.932,26.281L250.911,49.403L245.494,54.335Z" style="fill:rgb(8,6,5);fill-rule:nonzero;"/>
    <path d="M239.674,92.331L237.41,89.825L240.32,56.355L245.009,56.355L245.333,56.759L249.86,61.691L247.838,84.813L239.674,92.331Z" style="fill:rgb(8,6,5);fill-rule:nonzero;"/>
    <path d="M247.353,17.63L250.103,15.125L287.695,15.125L290.04,17.63L281.874,25.15L254.226,25.15L247.353,17.63Z" style="fill:rgb(8,6,5);fill-rule:nonzero;"/>
    <path d="M285.189,56.759L285.593,56.436L290.283,56.436L287.373,89.825L284.623,92.331L277.833,84.813L279.853,61.691L285.189,56.759Z" style="fill:rgb(8,6,5);fill-rule:nonzero;"/>
    <path d="M291.091,18.762L293.354,21.269L290.444,54.739L285.755,54.739L285.432,54.414L280.904,49.484L282.926,26.281L291.091,18.762Z" style="fill:rgb(8,6,5);fill-rule:nonzero;"/>
    <path d="M283.411,93.464L280.662,95.969L243.068,95.969L240.724,93.464L248.89,85.944L276.538,85.944L283.411,93.464Z" style="fill:rgb(8,6,5);fill-rule:nonzero;"/>
    <g transform="matrix(1.50184,0,0,1.50184,-69.9576,-610.816)">
        <path d="M245.95,465.985C246.129,466.416 246.219,466.846 246.219,467.277C246.219,467.708 246.129,468.138 245.95,468.569C245.77,468.999 245.537,469.358 245.25,469.645C244.963,469.933 244.604,470.166 244.173,470.345C243.742,470.525 243.312,470.614 242.881,470.614C242.451,470.614 242.02,470.525 241.589,470.345C241.159,470.166 240.8,469.933 240.513,469.645C240.226,469.358 239.992,468.999 239.813,468.569C239.633,468.138 239.544,467.708 239.544,467.277C239.544,466.846 239.633,466.416 239.813,465.985C239.992,465.554 240.226,465.195 240.513,464.908C240.8,464.621 241.159,464.388 241.589,464.209C242.02,464.029 242.451,463.939 242.881,463.939C243.312,463.939 243.742,464.029 244.173,464.209C244.604,464.388 244.963,464.621 245.25,464.908C245.537,465.195 245.77,465.554 245.95,465.985Z" style="fill:rgb(8,6,5);fill-rule:nonzero;"/>
    </g>
    <path d="M345.5,50.534L350.107,55.628L344.692,60.559L317.122,60.559L312.515,55.547L318.013,50.534L345.5,50.534Z" style="fill:rgb(8,6,5);fill-rule:nonzero;"/>
    <path d="M311.464,54.335L311.06,54.739L306.452,54.739L309.362,21.269L312.111,18.762L318.902,26.281L316.881,49.403L311.464,54.335Z" style="fill:rgb(8,6,5);fill-rule:nonzero;"/>
    <path d="M305.644,92.331L303.379,89.825L306.29,56.355L310.978,56.355L311.303,56.759L315.829,61.691L313.808,84.813L305.644,92.331Z" style="fill:rgb(8,6,5);fill-rule:nonzero;"/>
    <path d="M313.323,17.63L316.073,15.125L353.665,15.125L356.009,17.63L347.844,25.15L320.195,25.15L313.323,17.63Z" style="fill:rgb(8,6,5);fill-rule:nonzero;"/>
    <path d="M351.159,56.759L351.563,56.436L356.253,56.436L353.342,89.825L350.592,92.331L343.803,84.813L345.822,61.691L351.159,56.759Z" style="fill:rgb(8,6,5);fill-rule:nonzero;"/>
    <path d="M357.061,18.762L359.324,21.269L356.413,54.739L351.725,54.739L351.402,54.414L346.874,49.484L348.895,26.281L357.061,18.762Z" style="fill:rgb(8,6,5);fill-rule:nonzero;"/>
    <path d="M349.38,93.464L346.632,95.969L309.038,95.969L306.694,93.464L314.859,85.944L342.508,85.944L349.38,93.464Z" style="fill:rgb(8,6,5);fill-rule:nonzero;"/>
    <g transform="matrix(1.50184,0,0,1.50184,-69.9576,-610.816)">
        <path d="M289.875,465.985C290.055,466.416 290.145,466.846 290.145,467.277C290.145,467.708 290.055,468.138 289.875,468.569C289.696,468.999 289.463,469.358 289.176,469.645C288.889,469.933 288.53,470.166 288.099,470.345C287.668,470.525 287.238,470.614 286.807,470.614C286.376,470.614 285.946,470.525 285.515,470.345C285.085,470.166 284.726,469.933 284.439,469.645C284.151,469.358 283.918,468.999 283.739,468.569C283.559,468.138 283.47,467.708 283.47,467.277C283.47,466.846 283.559,466.416 283.739,465.985C283.918,465.554 284.151,465.195 284.439,464.908C284.726,464.621 285.085,464.388 285.515,464.209C285.946,464.029 286.376,463.939 286.807,463.939C287.238,463.939 287.668,464.029 288.099,464.209C288.53,464.388 288.889,464.621 289.176,464.908C289.463,465.195 289.696,465.554 289.875,465.985Z" style="fill:rgb(8,6,5);fill-rule:nonzero;"/>
    </g>
    <path d="M411.469,50.534L416.077,55.628L410.661,60.559L383.092,60.559L378.484,55.547L383.983,50.534L411.469,50.534Z" style="fill:rgb(8,6,5);fill-rule:nonzero;"/>
    <path d="M377.433,54.335L377.029,54.739L372.421,54.739L375.332,21.269L378.08,18.762L384.872,26.281L382.85,49.403L377.433,54.335Z" style="fill:rgb(8,6,5);fill-rule:nonzero;"/>
    <path d="M371.612,92.331L369.349,89.825L372.259,56.355L376.948,56.355L377.272,56.759L381.799,61.691L379.777,84.813L371.612,92.331Z" style="fill:rgb(8,6,5);fill-rule:nonzero;"/>
    <path d="M379.292,17.63L382.042,15.125L419.635,15.125L421.979,17.63L413.814,25.15L386.165,25.15L379.292,17.63Z" style="fill:rgb(8,6,5);fill-rule:nonzero;"/>
    <path d="M417.128,56.759L417.532,56.436L422.222,56.436L419.312,89.825L416.562,92.331L409.772,84.813L411.792,61.691L417.128,56.759Z" style="fill:rgb(8,6,5);fill-rule:nonzero;"/>
    <path d="M423.03,18.762L425.294,21.269L422.383,54.739L417.694,54.739L417.371,54.414L412.843,49.484L414.865,26.281L423.03,18.762Z" style="fill:rgb(8,6,5);fill-rule:nonzero;"/>
    <path d="M415.35,93.464L412.602,95.969L375.008,95.969L372.663,93.464L380.829,85.944L408.478,85.944L415.35,93.464Z" style="fill:rgb(8,6,5);fill-rule:nonzero;"/>
    <g>
        <g transform="matrix(2.03079,0,0,1.9075,-257.926,-949.391)">
            <path d="M345.163,516.091L343.074,516.091L342.601,517.769L338.885,517.769L342.806,505.643L347.413,505.643L349.23,517.769L345.342,517.769L345.163,516.091ZM343.737,513.213L344.97,513.213L344.749,509.274L344.681,509.274L343.737,513.213Z" style="fill:rgb(8,6,5);fill-rule:nonzero;"/>
        </g>
        <g transform="matrix(2.03079,0,0,1.9075,-257.926,-949.391)">
            <path d="M359.239,510.849L359.17,510.849L357.057,517.769L354.694,517.769L353.912,510.849L353.843,510.849L353.392,517.769L350.052,517.769L351.113,505.643L355.549,505.643L356.416,511.98L356.485,511.98L358.444,505.643L363.154,505.643L362.093,517.769L358.462,517.769L359.239,510.849Z" style="fill:rgb(8,6,5);fill-rule:nonzero;"/>
        </g>
    </g>
    <g>
        <g transform="matrix(2.03079,0,0,1.9075,-254.256,-884.048)">
            <path d="M341.042,496.839L340.709,500.641L337.078,500.641L338.139,488.515L342.472,488.515C342.952,488.515 343.431,488.583 343.91,488.72C344.389,488.857 344.812,489.085 345.178,489.405C345.544,489.725 345.826,490.147 346.026,490.673C346.225,491.198 346.291,491.855 346.222,492.642C346.156,493.396 345.983,494.038 345.702,494.569C345.421,495.1 345.078,495.534 344.672,495.871C344.266,496.208 343.816,496.453 343.323,496.608C342.83,496.762 342.338,496.839 341.847,496.839L341.042,496.839ZM341.497,491.632L341.302,493.858L341.748,493.858C341.987,493.858 342.216,493.756 342.434,493.55C342.652,493.345 342.776,493.065 342.807,492.711C342.841,492.323 342.766,492.046 342.58,491.88C342.395,491.715 342.182,491.632 341.943,491.632L341.497,491.632Z" style="fill:rgb(8,6,5);fill-rule:nonzero;"/>
        </g>
        <g transform="matrix(2.03079,0,0,1.9075,-254.256,-884.048)">
            <path d="M355.89,493.721L355.822,493.721L353.709,500.641L351.345,500.641L350.563,493.721L350.495,493.721L350.044,500.641L346.704,500.641L347.765,488.515L352.201,488.515L353.068,494.852L353.137,494.852L355.095,488.515L359.806,488.515L358.745,500.641L355.114,500.641L355.89,493.721Z" style="fill:rgb(8,6,5);fill-rule:nonzero;"/>
        </g>
    </g>
    <g>
        <g transform="matrix(1.50184,0,0,1.50184,-69.9576,-709.377)">
            <path d="M71.392,500.945L72.247,500.945C73.185,500.945 73.957,500.173 73.957,499.235L69.682,499.235C69.682,500.173 70.454,500.945 71.392,500.945Z" style="fill:rgb(8,6,5);fill-rule:nonzero;"/>
        </g>
        <g transform="matrix(1.50184,0,0,1.50184,-69.9576,-737.011)">
            <path d="M78.019,512.932L77.948,512.932L77.144,508.144C76.894,506.281 75.683,504.679 73.957,503.933L73.957,503.938C73.957,502.765 72.992,501.8 71.82,501.8C70.647,501.8 69.682,502.765 69.682,503.938L69.682,503.933C67.957,504.679 66.745,506.281 66.496,508.144L65.692,512.932L65.62,512.932C64.565,512.932 63.697,513.801 63.697,514.856C63.697,515.912 64.565,516.78 65.62,516.78L78.019,516.78C79.074,516.78 79.943,515.912 79.943,514.856C79.943,513.801 79.074,512.932 78.019,512.932Z" style="fill:rgb(8,6,5);fill-rule:nonzero;"/>
        </g>
    </g>
    <g>
        <g transform="matrix(1.50184,0,0,1.50184,-69.9576,-618.342)">
            <path d="M358.928,467.686L358.03,467.686L358.03,471.878L358.928,471.878C359.425,471.878 359.827,471.476 359.827,470.98L359.827,468.585C359.827,468.088 359.425,467.686 358.928,467.686Z" style="fill:rgb(8,6,5);fill-rule:nonzero;"/>
        </g>
        <g transform="matrix(1.50184,0,0,1.50184,-69.9576,-617.893)">
            <path d="M357.589,466.331C357.589,465.011 356.517,463.939 355.198,463.939L337.824,463.939C336.504,463.939 335.433,465.011 335.433,466.331L335.433,472.935C335.433,474.255 336.504,475.326 337.824,475.326L355.198,475.326C356.517,475.326 357.589,474.255 357.589,472.935L357.589,466.331Z" style="fill:rgb(8,6,5);"/>
        </g>
    </g>
    <g>
        <g transform="matrix(1.50184,0,0,1.50184,-69.9576,-612.699)">
            <path d="M95.551,470.305C95.355,470.501 95.244,470.768 95.244,471.045C95.244,471.62 95.717,472.092 96.291,472.092C96.569,472.092 96.835,471.982 97.032,471.786L100.172,468.645C100.221,468.596 100.265,468.542 100.304,468.484C100.319,468.461 100.33,468.435 100.343,468.411C100.364,468.377 100.383,468.341 100.4,468.304C100.412,468.27 100.423,468.236 100.432,468.202C100.441,468.171 100.453,468.141 100.459,468.109C100.486,467.973 100.486,467.834 100.459,467.699C100.453,467.666 100.441,467.636 100.431,467.605C100.423,467.571 100.412,467.537 100.4,467.504C100.383,467.467 100.364,467.431 100.343,467.396C100.33,467.372 100.319,467.347 100.304,467.324C100.265,467.265 100.221,467.211 100.172,467.162L97.032,464.022C96.835,463.826 96.569,463.715 96.291,463.715C95.717,463.715 95.244,464.188 95.244,464.762C95.244,465.04 95.355,465.306 95.551,465.503L96.905,466.857L84.772,466.857C84.198,466.857 83.725,467.329 83.725,467.904C83.725,468.478 84.198,468.951 84.772,468.951L96.905,468.951L95.551,470.305Z" style="fill:rgb(8,6,5);fill-rule:nonzero;"/>
        </g>
        <g transform="matrix(1.50184,0,0,1.50184,-69.9576,-633.668)">
            <path d="M88.654,477.286L87.3,475.932L99.433,475.932C100.007,475.932 100.48,475.459 100.48,474.885C100.48,474.31 100.007,473.837 99.433,473.837L87.3,473.837L88.654,472.483C88.851,472.287 88.961,472.021 88.961,471.743C88.961,471.169 88.488,470.696 87.914,470.696C87.636,470.696 87.37,470.806 87.173,471.003L84.033,474.143C83.984,474.192 83.94,474.246 83.901,474.304C83.886,474.328 83.875,474.353 83.862,474.377C83.841,474.411 83.822,474.447 83.805,474.484C83.793,474.518 83.782,474.552 83.774,474.586C83.764,474.617 83.752,474.647 83.746,474.68C83.718,474.815 83.718,474.954 83.746,475.089C83.752,475.122 83.764,475.152 83.774,475.183C83.782,475.217 83.793,475.251 83.805,475.285C83.822,475.322 83.841,475.357 83.862,475.392C83.875,475.416 83.885,475.441 83.901,475.465C83.94,475.523 83.984,475.577 84.033,475.626L87.173,478.766C87.37,478.963 87.636,479.073 87.914,479.073C88.488,479.073 88.961,478.6 88.961,478.026C88.961,477.748 88.851,477.482 88.654,477.286Z" style="fill:rgb(8,6,5);fill-rule:nonzero;"/>
        </g>
    </g>
    <g transform="matrix(1.50184,0,0,1.50184,-69.9576,-626.955)">
        <path d="M78.214,479.304C78.192,479.21 78.119,479.138 78.025,479.118C77.72,479.052 77.415,478.972 77.12,478.879C74.058,477.919 71.691,475.637 70.625,472.618C69.559,469.598 69.968,466.335 71.748,463.666C71.92,463.408 72.107,463.154 72.303,462.911C72.363,462.837 72.375,462.735 72.333,462.649C72.291,462.563 72.204,462.509 72.108,462.51C71.074,462.523 70.051,462.707 69.066,463.054C64.107,464.805 61.498,470.263 63.249,475.222C64.999,480.181 70.458,482.79 75.417,481.039C76.401,480.692 77.312,480.192 78.126,479.553C78.201,479.494 78.235,479.397 78.214,479.304Z" style="fill:rgb(8,6,5);fill-rule:nonzero;"/>
    </g>
    <g>
        <g transform="matrix(0,1.50184,1.50184,0,-685.621,-105.661)">
            <ellipse cx="94.127" cy="504.068" rx="1.615" ry="1.615" style="fill:rgb(8,6,5);"/>
        </g>
        <g transform="matrix(1.50184,0,0,1.50184,-69.9576,-749.354)">
            <path d="M85.474,514.291C85.277,514.482 85.165,514.745 85.165,515.02C85.165,515.577 85.624,516.035 86.181,516.035C86.446,516.035 86.701,515.931 86.891,515.746C88.827,513.831 91.439,512.75 94.163,512.736C96.865,512.784 99.448,513.873 101.37,515.773C101.559,515.955 101.811,516.057 102.073,516.057C102.631,516.057 103.089,515.598 103.089,515.041C103.089,514.763 102.975,514.497 102.774,514.306C100.471,512.054 97.384,510.777 94.163,510.745C90.915,510.742 87.792,512.016 85.474,514.291Z" style="fill:rgb(8,6,5);fill-rule:nonzero;"/>
        </g>
        <g transform="matrix(1.50184,0,0,1.50184,-69.9576,-732.456)">
            <path d="M94.165,508.122C95.109,508.154 96.01,508.532 96.696,509.182C96.888,509.354 97.137,509.449 97.395,509.449C97.969,509.449 98.441,508.977 98.441,508.403C98.441,508.106 98.314,507.823 98.094,507.625C97.014,506.658 95.614,506.126 94.165,506.13C92.68,506.098 91.239,506.639 90.143,507.641C89.932,507.839 89.813,508.115 89.813,508.403C89.813,508.977 90.285,509.449 90.858,509.449C91.124,509.449 91.38,509.348 91.574,509.166C92.273,508.501 93.2,508.127 94.165,508.122Z" style="fill:rgb(8,6,5);fill-rule:nonzero;"/>
        </g>
        <g transform="matrix(1.50184,0,0,1.50184,-69.9576,-741.453)">
            <path d="M94.161,510.794C95.869,510.752 97.528,511.371 98.791,512.521C98.972,512.692 99.211,512.787 99.46,512.787C99.994,512.787 100.434,512.347 100.434,511.813C100.434,511.543 100.322,511.285 100.125,511.101C98.506,509.599 96.369,508.776 94.161,508.803C91.923,508.75 89.752,509.579 88.119,511.11C87.927,511.294 87.818,511.548 87.818,511.814C87.818,512.349 88.257,512.788 88.791,512.788C89.045,512.788 89.289,512.689 89.47,512.513C90.746,511.345 92.433,510.726 94.161,510.794Z" style="fill:rgb(8,6,5);fill-rule:nonzero;"/>
        </g>
    </g>
</svg>
